<svg width="50" height="50" viewBox="0 0 50 50" fill="none" xmlns="http://www.w3.org/2000/svg">
<path opacity="0.5" fill-rule="evenodd" clip-rule="evenodd" d="M14.3408 5.97907C14.6399 5.17272 15.3891 4.62081 16.2479 4.57418C17.1066 4.52756 17.9111 4.99512 18.2958 5.76435L27.426 24.0249L31.8389 17.4056C32.2624 16.7704 32.9898 16.4061 33.7521 16.4475C34.5144 16.4888 35.1982 16.9298 35.5504 17.6071L49.5825 44.5918C50.1325 45.6496 49.7209 46.953 48.6631 47.5031C47.6053 48.0531 46.3019 47.6415 45.7519 46.5837L33.4051 22.8399L28.955 29.515C28.5281 30.1553 27.7927 30.52 27.0246 30.4722C26.2566 30.4243 25.5721 29.9713 25.2279 29.283L16.6589 12.145L4.35688 45.3131C3.94227 46.4309 2.69997 47.001 1.58212 46.5864C0.464276 46.1718 -0.105811 44.9295 0.308797 43.8116L14.3408 5.97907ZM16.3649 9.96795C17.5572 9.96795 18.5237 9.00143 18.5237 7.80917C18.5237 6.61691 17.5572 5.6504 16.3649 5.6504C15.1726 5.6504 14.2061 6.61691 14.2061 7.80917C14.2061 9.00143 15.1726 9.96795 16.3649 9.96795ZM29.3176 27.2382C29.3176 28.4304 28.351 29.3969 27.1588 29.3969C25.9665 29.3969 25 28.4304 25 27.2382C25 26.0459 25.9665 25.0794 27.1588 25.0794C28.351 25.0794 29.3176 26.0459 29.3176 27.2382ZM33.6351 21.8412C34.8274 21.8412 35.7939 20.8747 35.7939 19.6824C35.7939 18.4902 34.8274 17.5237 33.6351 17.5237C32.4428 17.5237 31.4763 18.4902 31.4763 19.6824C31.4763 20.8747 32.4428 21.8412 33.6351 21.8412Z" fill="#0A0000"/>
<circle cx="16.3649" cy="7.80918" r="2.15878" stroke="#0A0000" stroke-width="2.15878" stroke-linecap="round" stroke-linejoin="round"/>
<circle cx="27.1588" cy="27.2382" r="2.15878" stroke="#0A0000" stroke-width="2.15878" stroke-linecap="round" stroke-linejoin="round"/>
<circle cx="33.6351" cy="19.6825" r="2.15878" stroke="#0A0000" stroke-width="2.15878" stroke-linecap="round" stroke-linejoin="round"/>
<path d="M9.02526 7.55209H7.50421L7.23858 8.41223H6.05273L7.74138 3.80797H8.78493L10.4862 8.41223H9.29405L9.02526 7.55209ZM7.76984 6.69512H8.75963L8.26315 5.09817L7.76984 6.69512Z" fill="#0A0000"/>
<path d="M20.0194 36.4763V31.8721H21.6733C22.2657 31.8721 22.7158 31.9806 23.0236 32.1978C23.3335 32.4149 23.4884 32.7301 23.4884 33.1433C23.4884 33.3815 23.4336 33.585 23.324 33.7536C23.2144 33.9223 23.0531 34.0466 22.8402 34.1268C23.0805 34.19 23.265 34.3081 23.3936 34.4809C23.5222 34.6538 23.5865 34.8646 23.5865 35.1134C23.5865 35.5645 23.4431 35.904 23.1564 36.1316C22.8718 36.3572 22.4491 36.4721 21.8883 36.4763H20.0194ZM21.1294 34.5189V35.6225H21.8567C22.057 35.6225 22.2109 35.5772 22.3184 35.4865C22.4259 35.3938 22.4797 35.2641 22.4797 35.0976C22.4797 34.7139 22.2889 34.521 21.9073 34.5189H21.1294ZM21.1294 33.7916H21.7081C21.9505 33.7895 22.1234 33.7452 22.2267 33.6587C22.33 33.5723 22.3816 33.4448 22.3816 33.2761C22.3816 33.0822 22.3258 32.943 22.214 32.8587C22.1023 32.7723 21.9221 32.729 21.6733 32.729H21.1294V33.7916Z" fill="#0A0000"/>
<path d="M42.0594 15.4883C42.0446 15.8088 41.9582 16.0923 41.8001 16.339C41.642 16.5835 41.4196 16.7733 41.1328 16.9082C40.8482 17.0431 40.5225 17.1106 40.1557 17.1106C39.5507 17.1106 39.0742 16.9135 38.7264 16.5192C38.3785 16.125 38.2046 15.5685 38.2046 14.8496V14.6219C38.2046 14.1707 38.2826 13.7765 38.4386 13.4392C38.5967 13.0998 38.8233 12.8384 39.1185 12.6549C39.4136 12.4694 39.7552 12.3767 40.1431 12.3767C40.7017 12.3767 41.1508 12.5242 41.4902 12.8194C41.8296 13.1124 42.0225 13.5172 42.0689 14.0337H40.9621C40.9537 13.7533 40.883 13.552 40.7502 13.4297C40.6174 13.3074 40.415 13.2463 40.1431 13.2463C39.8669 13.2463 39.6645 13.3496 39.5359 13.5562C39.4073 13.7628 39.3398 14.0927 39.3335 14.546V14.8717C39.3335 15.3629 39.3947 15.7139 39.5169 15.9247C39.6413 16.1356 39.8542 16.241 40.1557 16.241C40.4108 16.241 40.6058 16.1809 40.7407 16.0607C40.8757 15.9405 40.9473 15.7498 40.9558 15.4883H42.0594Z" fill="#0A0000"/>
</svg>
