<svg width="50" height="50" viewBox="0 0 50 50" fill="none" xmlns="http://www.w3.org/2000/svg">
<path d="M34.2905 20.3363C34.2905 22.494 33.3129 24.5738 31.9323 26.9741C31.7236 27.337 31.5031 27.7106 31.2769 28.0938C30.2696 29.8001 29.1502 31.6967 28.4623 33.6811C28.3125 33.706 28.1396 33.7303 27.9438 33.753C27.1706 33.8424 26.18 33.8902 25.1508 33.89C24.1231 33.8898 23.1022 33.8416 22.2705 33.7507C21.9882 33.7198 21.739 33.6852 21.5263 33.6484C20.8375 31.6757 19.7248 29.7904 18.723 28.0932C18.4969 27.71 18.2764 27.3364 18.0677 26.9736C16.6871 24.573 15.7095 22.4933 15.7095 20.3363C15.7095 15.169 19.8775 10.9933 25 10.9933C30.1232 10.9933 34.2905 15.169 34.2905 20.3363Z" stroke="#0A0000" stroke-width="3.71621"/>
<path d="M28.7162 38.8649C27.7664 38.8649 22.2336 38.8649 21.2838 38.8649" stroke="black" stroke-width="2.47747" stroke-miterlimit="10" stroke-linecap="round"/>
<path d="M29.955 35.1487C28.6885 35.1487 21.3115 35.1487 20.0451 35.1487" stroke="black" stroke-width="2.47747" stroke-miterlimit="10" stroke-linecap="round"/>
<path d="M28.7162 42.5811C27.7664 42.5811 22.2336 42.5811 21.2838 42.5811" stroke="black" stroke-width="2.47747" stroke-miterlimit="10" stroke-linecap="round"/>
<path d="M26.2387 46.2973C25.9219 46.2973 24.0774 46.2973 23.7613 46.2973" stroke="black" stroke-width="2.47747" stroke-miterlimit="10" stroke-linecap="round"/>
<path d="M39.8648 20.2838H43.581M6.41893 20.2838H10.1351M25 1.70273V5.41894M37.8733 27.7162L41.0917 29.5743M8.90833 10.9933L12.1267 12.8514M34.2905 4.19212L32.4324 7.41045M15.7095 4.19212L17.5676 7.41045M12.1267 27.7162L8.90833 29.5743M41.0917 10.9933L37.8733 12.8514" stroke="#0A0000" stroke-width="2.47747" stroke-miterlimit="10" stroke-linecap="round"/>
</svg>
