<svg width="50" height="50" viewBox="0 0 50 50" fill="none" xmlns="http://www.w3.org/2000/svg">
<rect opacity="0.25" width="13.0952" height="13.0952" rx="1.19048" fill="#0A0000"/>
<rect opacity="0.5" y="13.0952" width="13.0952" height="11.9048" rx="1.19048" fill="#0A0000"/>
<rect opacity="0.25" y="25" width="13.0952" height="13.0952" rx="1.19048" fill="#0A0000"/>
<rect opacity="0.15" y="38.0952" width="13.0952" height="11.9048" rx="1.19048" fill="#0A0000"/>
<rect opacity="0.5" x="13.0952" width="11.9048" height="13.0952" rx="1.19048" fill="#0A0000"/>
<rect x="13.0952" y="13.0952" width="11.9048" height="11.9048" rx="1.19048" fill="#0A0000"/>
<rect opacity="0.5" x="13.0952" y="25" width="11.9048" height="13.0952" rx="1.19048" fill="#0A0000"/>
<rect opacity="0.25" x="13.0952" y="38.0952" width="11.9048" height="11.9048" rx="1.19048" fill="#0A0000"/>
<rect opacity="0.25" x="25" width="11.9048" height="13.0952" rx="1.19048" fill="#0A0000"/>
<rect opacity="0.5" x="25" y="13.0952" width="11.9048" height="11.9048" rx="1.19048" fill="#0A0000"/>
<rect opacity="0.25" x="25" y="25" width="11.9048" height="13.0952" rx="1.19048" fill="#0A0000"/>
<rect opacity="0.15" x="25" y="38.0952" width="11.9048" height="11.9048" rx="1.19048" fill="#0A0000"/>
<rect opacity="0.15" x="36.9048" width="13.0952" height="13.0952" rx="1.19048" fill="#0A0000"/>
<rect opacity="0.25" x="36.9048" y="13.0952" width="13.0952" height="11.9048" rx="1.19048" fill="#0A0000"/>
<rect opacity="0.15" x="36.9048" y="25" width="13.0952" height="13.0952" rx="1.19048" fill="#0A0000"/>
</svg>
