<svg width="51" height="50" viewBox="0 0 51 50" fill="none" xmlns="http://www.w3.org/2000/svg">
<path d="M10.7834 5.43478C16.7617 2.71739 31.1801 0 36.3737 0C41.5674 0 45.1677 3.50446 46.7611 9.89583C47.7998 14.0625 50.3966 13.0208 50.916 15.625C50.916 18.2292 51.9547 28.125 46.7611 38.0208C41.5674 47.9167 30.1413 50 28.0639 50C25.9864 50 25.9864 50 24.9477 46.875C23.9089 43.75 17.9768 42.0527 10.4054 37.5C3.1747 33.1522 0.478862 25.5161 1.05682 18.75C1.54427 13.0435 5.24743 7.95113 10.7834 5.43478Z" fill="#0A0000"/>
<path opacity="0.3" d="M19.4997 8.9666C22.7591 8.71808 25.9521 7.88125 28.8555 7.12031C29.5865 6.92872 30.2992 6.74195 30.9899 6.57058C32.715 6.14261 34.3009 5.81076 35.7126 5.72653C37.124 5.64232 38.3363 5.80745 39.3289 6.35035C40.3603 6.91439 41.05 7.48938 41.5308 8.11063C42.0107 8.73086 42.294 9.41234 42.4914 10.208C42.6756 10.9507 42.7825 11.7807 42.9073 12.7502C42.9173 12.8277 42.9273 12.906 42.9376 12.9853C43.0755 14.0514 43.2414 15.2686 43.5558 16.671C43.8736 18.0886 44.3038 18.913 44.77 19.4444C45.1411 19.8676 45.5338 20.0968 45.8438 20.2778C45.9189 20.3216 45.9891 20.3626 46.053 20.4028C46.2208 20.5085 46.3485 20.6082 46.4474 20.7384C46.5446 20.8663 46.6261 21.0397 46.6732 21.308C46.7701 21.8604 46.7151 22.7745 46.3866 24.4028C45.0821 30.8679 40.996 37.8673 35.6276 41.6252C34.2672 42.5775 33.2632 43.2468 32.4844 43.6535C31.6981 44.0641 31.1964 44.1765 30.8205 44.0957C30.4552 44.0173 30.1336 43.7389 29.7524 43.1519C29.4297 42.655 29.0931 41.9841 28.6613 41.1238C28.5833 40.9683 28.5021 40.8065 28.4173 40.6385C28.0829 39.9755 27.4731 39.2882 26.6907 38.598C25.9048 37.9048 24.928 37.1942 23.8398 36.4874C21.6634 35.0739 19.0217 33.6634 16.5257 32.4263C11.5543 29.9625 6.70731 26.1159 6.70731 20.1087C6.70731 17.0955 7.86487 14.4744 10.0309 12.5251C12.2007 10.5723 15.3997 9.27923 19.4997 8.9666Z" stroke="white" stroke-width="0.543478"/>
<path opacity="0.5" d="M34.4418 36.6382C33.8302 37.1276 33.439 37.1509 33.1206 37.0268C32.7365 36.8771 32.3396 36.4746 31.8234 35.8208C31.6672 35.6229 31.5039 35.407 31.3308 35.1782C30.4051 33.9545 29.1998 32.3611 27.3038 31.1761C25.685 30.1643 23.9443 29.5005 22.2079 28.8382C22.0178 28.7657 21.8277 28.6932 21.6378 28.6202C19.7021 27.8767 17.7685 27.0816 15.9116 25.7553C12.3173 23.1879 12.3191 18.5698 14.3626 16.0155C15.336 14.7987 17.214 14.2639 19.5267 13.9918C20.654 13.8592 21.8493 13.7918 23.0442 13.7245L23.0855 13.7222C24.2885 13.6544 25.4916 13.5858 26.5948 13.4479C28.2419 13.2421 29.7609 12.6502 31.1274 12.1177C31.6111 11.9293 32.0756 11.7482 32.52 11.5944C34.2554 10.9937 35.7229 10.7757 37.1877 11.7522C38.6052 12.6972 38.7744 14.4958 38.6376 16.549C38.6053 17.0329 38.5574 17.5177 38.5101 17.9967L38.5049 18.0497C38.4562 18.543 38.4086 19.0312 38.3826 19.4912C38.3317 20.3897 38.3546 21.2712 38.6797 21.9214C39.0156 22.5932 39.5662 22.9217 40.1293 23.0965C40.5367 23.2229 40.9889 23.2773 41.3714 23.3232C41.4901 23.3375 41.6021 23.3509 41.704 23.3655C41.9346 23.3984 42.1204 23.4361 42.2675 23.4906C42.4116 23.5441 42.4932 23.6046 42.5418 23.6681C42.6307 23.7844 42.7259 24.0791 42.4619 24.8711C40.8578 29.6835 37.1016 34.5104 34.4418 36.6382Z" stroke="white" stroke-width="0.815217"/>
<path opacity="0.75" d="M18.9928 19.775C19.2469 19.1234 19.6155 18.7553 20.0615 18.5369C20.5247 18.3102 21.1058 18.2278 21.809 18.2215C22.3028 18.2171 22.8235 18.2493 23.3812 18.2837C23.6234 18.2987 23.8727 18.314 24.1297 18.3271C24.9633 18.3692 25.8525 18.3839 26.7428 18.2562C28.3181 18.0304 29.5709 17.2795 30.6155 16.6534C30.7643 16.5642 30.9089 16.4776 31.0496 16.3953C32.2179 15.7123 33.0557 15.3685 33.9943 15.8499C34.4517 16.0844 34.6677 16.4183 34.7535 16.8509C34.8449 17.3123 34.7879 17.8921 34.6459 18.584C34.5603 19.0009 34.4525 19.4234 34.3397 19.8656C34.2629 20.1664 34.1838 20.4763 34.1078 20.7997C33.9258 21.5746 33.7727 22.3878 33.7727 23.1753C33.7727 23.6066 33.8681 23.9622 34.0501 24.2524C34.2313 24.5414 34.479 24.7345 34.7328 24.873C34.9818 25.0089 35.2514 25.0996 35.4844 25.1746C35.5144 25.1843 35.5437 25.1937 35.5723 25.2028C35.779 25.269 35.9497 25.3237 36.0981 25.3929C36.2625 25.4695 36.3507 25.5431 36.3987 25.6183C36.4416 25.6854 36.483 25.8018 36.452 26.0316C36.3851 26.5273 36.006 27.3807 34.9968 28.8596C34.4978 29.5908 34.0885 30.1156 33.7443 30.4774C33.3958 30.8437 33.1404 31.0142 32.9545 31.0798C32.7941 31.1364 32.672 31.121 32.536 31.0482C32.3765 30.9628 32.1969 30.796 31.9692 30.5265C31.8268 30.358 31.6752 30.1598 31.5086 29.9419C30.6353 28.7999 29.3481 27.1168 26.8048 26.3341C23.9367 25.4516 21.692 24.4354 20.313 23.3038C19.6263 22.7403 19.177 22.1665 18.9581 21.5893C18.7433 21.0227 18.7394 20.4247 18.9928 19.775Z" stroke="white" stroke-width="0.815217"/>
<path d="M29.1473 21.6187C27.8887 21.9207 26.0008 21.3168 26.0008 22.2226C26.0008 23.1284 27.2594 23.1284 28.8326 23.7323C30.4059 24.3362 31.0352 25.242 31.3498 24.94C31.6645 24.6381 31.0352 24.3362 30.7205 23.4304C30.4059 22.5246 31.6645 21.0149 31.0352 20.7129C30.4059 20.411 30.4059 21.3168 29.1473 21.6187Z" fill="white"/>
</svg>
