<svg width="50" height="50" viewBox="0 0 50 50" fill="none" xmlns="http://www.w3.org/2000/svg">
<rect y="5.85714" width="4.7619" height="16.6667" rx="1.19048" fill="#0A0000"/>
<rect y="43.9524" width="4.7619" height="3.57143" rx="1.19048" fill="#0A0000"/>
<rect x="26.1905" y="13" width="4.7619" height="9.52381" rx="1.19048" fill="#0A0000"/>
<rect x="26.1905" y="40.381" width="4.7619" height="7.14286" rx="1.19048" fill="#0A0000"/>
<rect opacity="0.5" x="4.7619" y="3.47619" width="4.7619" height="19.0476" rx="1.19048" fill="#0A0000"/>
<rect opacity="0.5" x="4.7619" y="42.7619" width="4.7619" height="4.7619" rx="1.19048" fill="#0A0000"/>
<rect opacity="0.5" x="30.9524" y="8.23809" width="4.7619" height="14.2857" rx="1.19048" fill="#0A0000"/>
<rect opacity="0.5" x="30.9524" y="39.1905" width="4.7619" height="8.33333" rx="1.19048" fill="#0A0000"/>
<rect x="9.52381" y="10.619" width="4.7619" height="11.9048" rx="1.19048" fill="#0A0000"/>
<rect x="9.52381" y="46.3333" width="4.7619" height="1.19048" rx="0.595238" fill="#0A0000"/>
<rect x="35.7143" y="15.381" width="4.7619" height="7.14286" rx="1.19048" fill="#0A0000"/>
<rect x="35.7143" y="41.5714" width="4.7619" height="5.95238" rx="1.19048" fill="#0A0000"/>
<rect opacity="0.5" x="14.2857" y="9.42857" width="4.7619" height="13.0952" rx="1.19048" fill="#0A0000"/>
<rect opacity="0.5" x="14.2857" y="43.9524" width="4.7619" height="3.57143" rx="1.19048" fill="#0A0000"/>
<rect opacity="0.5" x="40.4762" y="14.1905" width="4.7619" height="8.33333" rx="1.19048" fill="#0A0000"/>
<rect opacity="0.5" x="40.4762" y="41.5714" width="4.7619" height="5.95238" rx="1.19048" fill="#0A0000"/>
<rect x="19.0476" y="15.381" width="4.7619" height="7.14286" rx="1.19048" fill="#0A0000"/>
<rect x="19.0476" y="43.9524" width="4.7619" height="3.57143" rx="1.19048" fill="#0A0000"/>
<rect x="45.2381" y="20.1429" width="4.7619" height="2.38095" rx="1.19048" fill="#0A0000"/>
<rect x="45.2381" y="46.3333" width="4.7619" height="1.19048" rx="0.595238" fill="#0A0000"/>
</svg>
