<?xml version="1.0" encoding="utf-8"?>
<!-- Generator: Adobe Illustrator 16.0.3, SVG Export Plug-In . SVG Version: 6.00 Build 0)  -->
<!DOCTYPE svg PUBLIC "-//W3C//DTD SVG 1.1//EN" "http://www.w3.org/Graphics/SVG/1.1/DTD/svg11.dtd">
<svg version="1.1" xmlns="http://www.w3.org/2000/svg" xmlns:xlink="http://www.w3.org/1999/xlink" x="0px" y="0px" width="53px"
	 height="53px" viewBox="0 0 53 53" enable-background="new 0 0 53 53" xml:space="preserve">
<g id="Layer_1">
	<rect x="1" fill="none" width="53" height="53"/>
	<g>
		<g>
			<path fill="none" stroke="#000000" stroke-width="4" stroke-linecap="round" stroke-miterlimit="10" d="M29,35
				C20.682,46.646,16.588,51,2,51"/>
			
				<line fill="none" stroke="#000000" stroke-width="4" stroke-linecap="round" stroke-miterlimit="10" x1="40.646" y1="17.531" x2="51" y2="2"/>
		</g>
	</g>
	<g>
		<path stroke="#000000" stroke-width="0.5" stroke-miterlimit="10" d="M10.602,23.383h1.752l1.488,4.418l1.453-4.418H17
			l-2.197,5.988l-0.393,1.084c-0.145,0.363-0.282,0.641-0.413,0.832s-0.281,0.348-0.451,0.467s-0.379,0.211-0.627,0.277
			s-0.528,0.1-0.841,0.1c-0.316,0-0.627-0.033-0.932-0.1L11,30.742c0.258,0.051,0.49,0.076,0.697,0.076
			c0.383,0,0.666-0.111,0.85-0.336s0.324-0.512,0.422-0.859L10.602,23.383z"/>
		<path stroke="#000000" stroke-width="0.5" stroke-miterlimit="10" d="M19,24.824v-1.512h4.775v1.512H19z M19,27.426v-1.518h4.775
			v1.518H19z"/>
		<path stroke="#000000" stroke-width="0.5" stroke-miterlimit="10" d="M25.42,23.383h0.914v-1.338c0-0.523,0.056-0.914,0.167-1.172
			s0.316-0.468,0.615-0.63S27.793,20,28.25,20c0.469,0,0.928,0.07,1.377,0.211l-0.223,1.148c-0.262-0.063-0.514-0.094-0.756-0.094
			c-0.238,0-0.409,0.056-0.513,0.167s-0.155,0.325-0.155,0.642v1.309h1.23v1.295h-1.23v4.928h-1.646v-4.928H25.42V23.383z"/>
		<path stroke="#000000" stroke-width="0.5" stroke-miterlimit="10" d="M33.965,32.131h-1.131c-0.598-0.902-1.053-1.84-1.365-2.813
			S31,27.404,31,26.494c0-1.129,0.193-2.197,0.58-3.205c0.336-0.875,0.762-1.682,1.277-2.42h1.125
			c-0.535,1.184-0.904,2.19-1.105,3.021s-0.301,1.71-0.301,2.64c0,0.641,0.059,1.297,0.178,1.969s0.283,1.311,0.49,1.916
			C33.381,30.813,33.621,31.385,33.965,32.131z"/>
		<path stroke="#000000" stroke-width="0.5" stroke-miterlimit="10" d="M34.439,29.605l2.244-3.205l-2.15-3.018h2.01l1.102,1.711
			l1.16-1.711h1.934l-2.109,2.947l2.303,3.275H38.91l-1.266-1.928l-1.277,1.928H34.439z"/>
		<path stroke="#000000" stroke-width="0.5" stroke-miterlimit="10" d="M41.447,32.131c0.324-0.695,0.553-1.229,0.686-1.6
			s0.256-0.799,0.369-1.283s0.197-0.943,0.252-1.379s0.082-0.883,0.082-1.34c0-0.93-0.1-1.81-0.299-2.64s-0.566-1.837-1.102-3.021
			h1.119c0.59,0.84,1.047,1.73,1.373,2.672s0.49,1.896,0.49,2.865c0,0.816-0.129,1.691-0.387,2.625
			c-0.293,1.047-0.775,2.08-1.447,3.1H41.447z"/>
	</g>
</g>
<g id="Layer_2">
</g>
</svg>
