<?xml version="1.0" encoding="utf-8"?>
<!-- Generator: Adobe Illustrator 16.0.3, SVG Export Plug-In . SVG Version: 6.00 Build 0)  -->
<!DOCTYPE svg PUBLIC "-//W3C//DTD SVG 1.1//EN" "http://www.w3.org/Graphics/SVG/1.1/DTD/svg11.dtd">
<svg version="1.1" id="Layer_1" xmlns="http://www.w3.org/2000/svg" xmlns:xlink="http://www.w3.org/1999/xlink" x="0px" y="0px"
	 width="50px" height="50px" viewBox="0 -0.5 50 50" enable-background="new 0 -0.5 50 50" xml:space="preserve">
<path fill="#0E0808" d="M45,45.5c0-0.55,0.45-1,1-1h3c0.55,0,1,0.45,1,1v3c0,0.55-0.45,1-1,1h-3c-0.55,0-1-0.45-1-1V45.5z"/>
<g opacity="0.5" enable-background="new    ">
	<path fill="#0E0808" d="M40,45.5c0-0.55,0.45-1,1-1h3c0.55,0,1,0.45,1,1v3c0,0.55-0.45,1-1,1h-3c-0.55,0-1-0.45-1-1V45.5z"/>
</g>
<g opacity="0.25" enable-background="new    ">
	<path fill="#0E0808" d="M35,45.5c0-0.55,0.45-1,1-1h3c0.55,0,1,0.45,1,1v3c0,0.55-0.45,1-1,1h-3c-0.55,0-1-0.45-1-1V45.5z"/>
</g>
<g opacity="0.25" enable-background="new    ">
	<path fill="#0E0808" d="M40,40.5c0-0.55,0.45-1,1-1h3c0.55,0,1,0.45,1,1v3c0,0.55-0.45,1-1,1h-3c-0.55,0-1-0.45-1-1V40.5z"/>
</g>
<g opacity="0.25" enable-background="new    ">
	<path fill="#0E0808" d="M45,35.5c0-0.55,0.45-1,1-1h3c0.55,0,1,0.45,1,1v3c0,0.55-0.45,1-1,1h-3c-0.55,0-1-0.45-1-1V35.5z"/>
</g>
<g opacity="0.5" enable-background="new    ">
	<path fill="#0E0808" d="M45,40.5c0-0.55,0.45-1,1-1h3c0.55,0,1,0.45,1,1v3c0,0.55-0.45,1-1,1h-3c-0.55,0-1-0.45-1-1V40.5z"/>
</g>
<path fill="#0E0808" d="M29,44.499c0.55,0,1,0.45,1,1v3c0,0.55-0.45,1-1,1h-3c-0.549,0-1-0.45-1-1v-3c0-0.55,0.45-1,1-1H29z"/>
<g opacity="0.5" enable-background="new    ">
	<path fill="#0E0808" d="M29,39.499c0.55,0,1,0.45,1,1v3c0,0.55-0.45,1-1,1h-3c-0.549,0-1-0.45-1-1v-3c0-0.55,0.45-1,1-1H29z"/>
</g>
<g opacity="0.5" enable-background="new    ">
	<path fill="#0E0808" d="M34,44.499c0.55,0,1,0.45,1,1v3c0,0.55-0.45,1-1,1h-3c-0.55,0-1-0.45-1-1v-3c0-0.55,0.45-1,1-1H34z"/>
</g>
<path fill="#0E0808" d="M46,29.5c-0.55,0-1-0.45-1-1v-3c0-0.55,0.45-1,1-1h3c0.55,0,1,0.45,1,1v3c0,0.55-0.45,1-1,1H46z"/>
<g opacity="0.5" enable-background="new    ">
	<path fill="#0E0808" d="M46,34.5c-0.55,0-1-0.45-1-1v-3c0-0.55,0.45-1,1-1h3c0.55,0,1,0.45,1,1v3c0,0.55-0.45,1-1,1H46z"/>
</g>
<g opacity="0.5" enable-background="new    ">
	<path fill="#0E0808" d="M41,29.5c-0.55,0-1-0.45-1-1v-3c0-0.55,0.45-1,1-1h3c0.55,0,1,0.45,1,1v3c0,0.55-0.45,1-1,1H41z"/>
</g>
<path fill="#0E0808" d="M30,28.5c0,0.55-0.45,1-1,1h-3c-0.55,0-1-0.45-1-1v-3c0-0.55,0.45-1,1-1h3c0.55,0,1,0.45,1,1V28.5z"/>
<circle fill="#0E0808" cx="36" cy="13.5" r="1"/>
<circle fill="#0E0808" cx="38" cy="8.5" r="1"/>
<circle fill="#0E0808" cx="38" cy="12.5" r="1"/>
<circle fill="#0E0808" cx="42" cy="10.5" r="1"/>
<circle fill="#0E0808" cx="36" cy="11.5" r="1"/>
<circle fill="#0E0808" cx="34" cy="15.5" r="1"/>
<circle fill="#0E0808" cx="29" cy="13.5" r="1"/>
<circle fill="#0E0808" cx="38" cy="16.5" r="1"/>
<circle fill="#0E0808" cx="48" cy="1.5" r="1"/>
<circle fill="#0E0808" cx="30" cy="7.5" r="1"/>
<circle fill="#0E0808" cx="31" cy="2.5" r="1"/>
<circle fill="#0E0808" cx="40" cy="7.5" r="1"/>
<circle fill="#0E0808" cx="44" cy="3.5" r="1"/>
<circle fill="#0E0808" cx="46" cy="10.5" r="1"/>
<circle fill="#0E0808" cx="39" cy="10.5" r="1"/>
<circle fill="#0E0808" cx="40" cy="13.5" r="1"/>
<circle fill="#0E0808" cx="33" cy="11.5" r="1"/>
<circle fill="#0E0808" cx="37" cy="5.5" r="1"/>
<circle fill="#0E0808" cx="35" cy="8.5" r="1"/>
<circle fill="#0E0808" cx="26" cy="17.5" r="1"/>
<circle fill="#0E0808" cx="31" cy="16.5" r="1"/>
<circle fill="#0E0808" cx="34" cy="21.5" r="1"/>
<circle fill="#0E0808" cx="39" cy="20.5" r="1"/>
<circle fill="#0E0808" cx="43" cy="18.5" r="1"/>
<circle fill="#0E0808" cx="41" cy="22.5" r="1"/>
<circle fill="#0E0808" cx="47" cy="17.5" r="1"/>
<circle fill="#0E0808" cx="42" cy="14.5" r="1"/>
<path fill="#0E0808" d="M5,23.501c0,0.55-0.45,1-1,1H1c-0.55,0-1-0.45-1-1v-9c0-0.55,0.45-1,1-1h3c0.55,0,1,0.45,1,1V23.501z"/>
<path fill="#0E0808" d="M17,23.501c0,0.55-0.45,1-1,1h-3c-0.55,0-1-0.45-1-1v-17c0-0.55,0.45-1,1-1h3c0.55,0,1,0.45,1,1V23.501z"/>
<g opacity="0.5" enable-background="new    ">
	<path fill="#0E0808" d="M35,28.5c0,0.55-0.45,1-1,1h-3c-0.55,0-1-0.45-1-1v-3c0-0.55,0.45-1,1-1h3c0.55,0,1,0.45,1,1V28.5z"/>
</g>
<g opacity="0.5" enable-background="new    ">
	<path fill="#0E0808" d="M11,23.5c0,0.55-0.45,1-1,1H7c-0.55,0-1-0.45-1-1V0.504c0-0.55,0.45-1,1-1h3c0.55,0,1,0.45,1,1V23.5z"/>
</g>
<g opacity="0.25" enable-background="new    ">
	<path fill="#0E0808" d="M40,28.5c0,0.55-0.45,1-1,1h-3c-0.55,0-1-0.45-1-1v-3c0-0.55,0.45-1,1-1h3c0.55,0,1,0.45,1,1V28.5z"/>
</g>
<g opacity="0.25" enable-background="new    ">
	<path fill="#0E0808" d="M45,33.5c0,0.55-0.45,1-1,1h-3c-0.55,0-1-0.45-1-1v-3c0-0.55,0.45-1,1-1h3c0.55,0,1,0.45,1,1V33.5z"/>
</g>
<g opacity="0.25" enable-background="new    ">
	<path fill="#0E0808" d="M35,43.5c0,0.55-0.45,1-1,1h-3c-0.55,0-1-0.45-1-1v-3c0-0.55,0.45-1,1-1h3c0.55,0,1,0.45,1,1V43.5z"/>
</g>
<g opacity="0.1" enable-background="new    ">
	<path fill="#0E0808" d="M35,38.5c0,0.55-0.45,1-1,1h-3c-0.55,0-1-0.45-1-1v-3c0-0.55,0.45-1,1-1h3c0.55,0,1,0.45,1,1V38.5z"/>
</g>
<g opacity="0" enable-background="new    ">
	<path fill="#0E0808" d="M40,38.5c0,0.55-0.45,1-1,1h-3c-0.55,0-1-0.45-1-1v-3c0-0.55,0.45-1,1-1h3c0.55,0,1,0.45,1,1V38.5z"/>
</g>
<g opacity="0.1" enable-background="new    ">
	<path fill="#0E0808" d="M40,43.5c0,0.55-0.45,1-1,1h-3c-0.55,0-1-0.45-1-1v-3c0-0.55,0.45-1,1-1h3c0.55,0,1,0.45,1,1V43.5z"/>
</g>
<g opacity="0.1" enable-background="new    ">
	<path fill="#0E0808" d="M45,38.5c0,0.55-0.45,1-1,1h-3c-0.55,0-1-0.45-1-1v-3c0-0.55,0.45-1,1-1h3c0.55,0,1,0.45,1,1V38.5z"/>
</g>
<g opacity="0.1" enable-background="new    ">
	<path fill="#0E0808" d="M40,33.5c0,0.55-0.45,1-1,1h-3c-0.55,0-1-0.45-1-1v-3c0-0.55,0.45-1,1-1h3c0.55,0,1,0.45,1,1V33.5z"/>
</g>
<g opacity="0.25" enable-background="new    ">
	<path fill="#0E0808" d="M35,33.5c0,0.55-0.45,1-1,1h-3c-0.55,0-1-0.45-1-1v-3c0-0.55,0.45-1,1-1h3c0.55,0,1,0.45,1,1V33.5z"/>
</g>
<g opacity="0.25" enable-background="new    ">
	<path fill="#0E0808" d="M23,23.5c0,0.55-0.45,1-1,1h-3c-0.55,0-1-0.45-1-1v-3c0-0.55,0.45-1,1-1h3c0.55,0,1,0.45,1,1V23.5z"/>
</g>
<g opacity="0.25" enable-background="new    ">
	<path fill="#0E0808" d="M30,38.5c0,0.55-0.45,1-1,1h-3c-0.55,0-1-0.45-1-1v-3c0-0.55,0.45-1,1-1h3c0.55,0,1,0.45,1,1V38.5z"/>
</g>
<g opacity="0.5" enable-background="new    ">
	<path fill="#0E0808" d="M30,33.5c0,0.55-0.45,1-1,1h-3c-0.55,0-1-0.45-1-1v-3c0-0.55,0.45-1,1-1h3c0.55,0,1,0.45,1,1V33.5z"/>
</g>
<path fill="none" stroke="#0E0808" stroke-width="2" stroke-linecap="round" stroke-miterlimit="10" d="M4,45.5
	c3.28-22.962,14,6,17-17"/>
</svg>
