<svg width="50" height="50" viewBox="0 0 50 50" fill="none" xmlns="http://www.w3.org/2000/svg">
<path opacity="0.25" d="M44.0476 10.3605V32.6566C44.0476 33.527 43.144 34.1032 42.3548 33.7359L32.1357 28.9794C31.5005 28.6837 31.2568 27.9061 31.6095 27.3008L41.8285 9.76116C42.4404 8.71093 44.0476 9.14498 44.0476 10.3605Z" fill="#0A0000"/>
<path opacity="0.25" d="M25 10.3605V32.6566C25 33.527 24.0963 34.1032 23.3072 33.7359L13.0881 28.9794C12.4529 28.6837 12.2091 27.9061 12.5618 27.3008L22.7809 9.76116C23.3928 8.71093 25 9.14498 25 10.3605Z" fill="#0A0000"/>
<path d="M3.05176 38.3595L48.4813 42.2928C49.2528 42.3596 49.7562 43.1335 49.5045 43.8658L47.672 49.1965C47.5068 49.6772 47.0545 50 46.5462 50H11.4604C11.1272 50 10.8092 49.8603 10.5837 49.615L2.07241 40.3509C1.33762 39.5512 1.96973 38.2658 3.05176 38.3595Z" fill="#0A0000"/>
<path d="M36.9048 4.55654V38.5782C36.9048 39.4563 35.9866 40.0322 35.196 39.6499L20.1865 32.392C19.569 32.0934 19.3309 31.3361 19.6664 30.7379L34.676 3.97422C35.2756 2.90501 36.9048 3.33066 36.9048 4.55654Z" fill="#0A0000"/>
</svg>
