<?xml version="1.0" encoding="utf-8"?>
<!-- Generator: Adobe Illustrator 16.0.3, SVG Export Plug-In . SVG Version: 6.00 Build 0)  -->
<!DOCTYPE svg PUBLIC "-//W3C//DTD SVG 1.1//EN" "http://www.w3.org/Graphics/SVG/1.1/DTD/svg11.dtd">
<svg version="1.1" id="Layer_1" xmlns="http://www.w3.org/2000/svg" xmlns:xlink="http://www.w3.org/1999/xlink" x="0px" y="0px"
	 width="50px" height="50px" viewBox="0.5 0.5 50 50" enable-background="new 0.5 0.5 50 50" xml:space="preserve">
<g>
	<circle fill="#0A0000" cx="25.5" cy="15.5" r="2"/>
</g>
<g>
	<circle fill="#0A0000" cx="23.5" cy="26.5" r="2"/>
</g>
<circle fill="#0A0000" cx="25.5" cy="15.5" r="2"/>
<circle fill="#0A0000" cx="36.5" cy="23.5" r="2"/>
<circle fill="#0A0000" cx="32.5" cy="33.5" r="2"/>
<circle fill="#0A0000" cx="23.5" cy="40.5" r="2"/>
<circle fill="#0A0000" cx="12.5" cy="30.5" r="2"/>
<path opacity="0.5" fill="#0A0000" enable-background="new    " d="M5.5,7.5h39c-6.662,0-8.262-3-10.726-3c-2.462,0-2.924,1-4.875,1
	c-1.95,0-3.288-3-5.399-3c-2.113,0-3.563,4-6,4s-2.375-1-4-1C11.875,5.5,11.838,7.5,5.5,7.5z"/>
<path opacity="0.5" fill="#0A0000" enable-background="new    " d="M44.5,7.5v39c0-3.899,2-5.851,2-8.774c0-5.851,1-4.361,1-8.226
	c0-3.865,1-4.646,1-7c0-2.355-1.478-3.335-2-7S44.5,11.4,44.5,7.5z"/>
</svg>
