<svg width="53" height="53" viewBox="0 0 53 53" fill="none" xmlns="http://www.w3.org/2000/svg">
<path d="M5 50.5L5 3M5 3L4.30902 4.38197C4.05218 4.89563 4.42571 5.5 5 5.5V5.5C5.57429 5.5 5.94781 4.89563 5.69098 4.38197L5 3Z" stroke="#0A0000" stroke-width="2.5"/>
<path opacity="0.5" d="M37.4702 13.4911L43.412 40.2288C43.5854 41.0095 42.9914 41.75 42.1917 41.75H30.3083C29.5086 41.75 28.9146 41.0095 29.088 40.2288L35.0298 13.4911C35.3198 12.1859 37.1802 12.1859 37.4702 13.4911Z" fill="#0A0000"/>
<path opacity="0.5" d="M16.7762 28.221L21.7651 40.0129C22.1138 40.8371 21.5088 41.75 20.6139 41.75H10.6361C9.74122 41.75 9.13622 40.8371 9.48491 40.0129L14.4738 28.221C14.9042 27.2038 16.3458 27.2038 16.7762 28.221Z" fill="#0A0000"/>
<path opacity="0.5" d="M27.894 19.4341L42.3474 39.776C42.9355 40.6036 42.3437 41.75 41.3284 41.75H12.4216C11.4063 41.75 10.8145 40.6036 11.4026 39.776L25.856 19.4341C26.3543 18.7328 27.3957 18.7328 27.894 19.4341Z" fill="#0A0000"/>
<path d="M-5.46389e-08 45.5L50 45.5M50 45.5L47.5 44.25L47.5 46.75L50 45.5Z" stroke="#0A0000" stroke-width="2.5"/>
<circle cx="10.625" cy="51.125" r="1.875" fill="#0A0000"/>
<circle cx="20.625" cy="51.125" r="1.875" fill="#0A0000"/>
<circle cx="30.625" cy="51.125" r="1.875" fill="#0A0000"/>
<circle cx="40.625" cy="51.125" r="1.875" fill="#0A0000"/>
</svg>
