<svg width="50" height="50" viewBox="0 0 50 50" fill="none" xmlns="http://www.w3.org/2000/svg">
<mask id="path-2-inside-1" fill="white">
<path d="M50 17.2625C49.9509 17.2169 49.8709 17.0959 49.8035 17.0801C49.0577 16.9055 47.5912 17.689 46.8567 17.9009C46.5118 18.0004 45.8415 18.3369 45.4815 18.3113C45.0708 18.2822 44.1313 17.9922 44.008 17.6273C43.962 17.491 44.3275 17.2667 44.3027 17.1257C44.2273 16.6957 43.236 16.2682 42.9275 15.94C42.8237 15.8296 42.6819 15.5579 42.5642 15.4602C42.3074 15.2471 41.6097 15.0617 41.3558 14.8456C40.801 14.3734 39.9659 13.1685 39.6859 12.5199C39.4331 11.934 39.3075 10.5238 38.9001 10.1029C38.3338 9.5181 38.1611 9.25247 37.9389 8.95254C37.674 8.59484 37.088 7.91564 36.8373 7.54923C36.4542 6.98937 34.8962 5.62837 35.4621 5.22352C35.7304 5.03158 36.1432 6.23379 36.4444 6.08996C36.9957 5.8267 36.5728 4.18274 36.1006 3.80985C35.6785 3.47659 34.4382 3.82768 33.885 3.85545C33.4485 3.87734 32.5801 4.00247 32.143 3.99468C31.445 3.98223 30.0638 3.76001 29.3719 3.67304C28.7816 3.59885 27.5272 3.07256 27.0144 3.35383C26.6531 3.55202 26.7959 4.63087 26.425 4.8131C26.0118 5.01617 25.0202 4.60707 24.6078 4.40268C24.2551 4.22789 23.7897 3.55959 23.429 3.39943C23.0593 3.23522 22.2037 3.27124 21.8083 3.17142C21.3616 3.05869 20.2096 2.94797 20.0892 2.53299C19.996 2.2115 20.9597 1.81685 20.9733 1.48414C20.98 1.31984 20.6039 1.0999 20.5804 0.936915C20.5546 0.758246 20.922 0.409526 20.826 0.252883C20.683 0.0196736 19.9765 -0.0407949 19.6963 0.0248722C19.5866 0.0505919 19.461 0.268525 19.3525 0.298485C19.0081 0.393611 18.2866 0.136096 17.9275 0.125197C17.3975 0.109099 16.3312 0.158167 15.8108 0.252883C14.9357 0.412171 13.3191 1.31272 12.4273 1.30173C11.8525 1.29466 10.8302 0.468399 10.2663 0.572098C9.71886 0.672742 9.00061 1.59245 8.61757 1.96921C8.07377 2.50408 7.15317 3.70907 6.61993 4.25301C6.32161 4.55732 5.68626 5.13277 5.35484 5.40593C4.76055 5.89569 3.42292 6.71763 2.87485 7.25186C2.30478 7.8077 1.17146 9.00271 0.934581 9.73813C0.804967 10.1404 1.02844 10.9961 1.01734 11.4159C1.00879 11.7388 0.937086 12.3828 0.885466 12.7023C0.758947 13.485 0.409399 15.0365 0.197863 15.8032C0.15641 15.9534 -0.017308 16.242 0.00140459 16.396C0.0304313 16.6348 0.376443 17.0278 0.518728 17.2286C0.693379 17.475 0.986102 18.0589 1.27838 18.1745C1.36944 18.2106 1.58127 18.0907 1.6713 18.1289C1.91284 18.2316 2.13135 18.7343 2.26067 18.9498C2.49068 19.333 2.72908 20.2209 3.04651 20.5458C3.263 20.7675 3.89727 20.9753 4.16111 21.1472C4.55889 21.4062 5.19541 22.1496 5.65144 22.3053C6.40152 22.5615 8.04985 22.2928 8.84811 22.3288C9.18823 22.3442 9.86449 22.4545 10.2048 22.4416C10.6063 22.4263 11.3917 22.2441 11.7888 22.1875C12.7877 22.0451 14.831 21.4059 15.795 21.6875C16.2076 21.8081 16.6562 22.6543 17.0689 22.7746C17.4058 22.8727 18.1234 22.5283 18.4684 22.5979C18.7381 22.6524 19.2754 22.9173 19.4016 23.1452C19.5961 23.4963 19.325 24.3278 19.3043 24.7222C19.2939 24.9195 19.3117 25.3179 19.2699 25.5115C19.2053 25.8109 18.7678 26.3541 18.8123 26.6565C18.9312 27.4654 20.4297 28.5975 20.8751 29.3015C21.2731 29.9303 22.3026 31.2231 22.2012 31.9464C22.1888 32.0347 21.9777 32.1333 21.9556 32.22C21.8571 32.6075 22.3983 33.375 22.3485 33.7705C22.2752 34.3529 21.3278 35.2906 21.2189 35.8682C21.0377 36.8293 21.3529 38.8267 21.71 39.7443C21.9091 40.2559 22.7807 41.0594 22.987 41.5684C23.2202 42.1436 23.1648 43.4159 23.3658 44.0014C23.5235 44.4609 24.098 45.2793 24.3131 45.7182C24.6417 46.3888 25.8044 47.7772 25.4918 48.4544C25.4658 48.5108 25.2576 48.4851 25.2463 48.5456C25.1457 49.083 26.4298 49.885 27.0059 49.992C27.391 50.0635 28.119 49.6339 28.492 49.5198C29.4328 49.2319 31.3634 48.7803 32.2697 48.4088C32.5163 48.3077 33.0001 48.0722 33.2028 47.9072C33.5057 47.6606 33.9443 47.0213 34.1851 46.7215C34.611 46.1914 35.4126 45.0965 35.855 44.5782C36.1153 44.2733 36.6838 43.7007 36.9528 43.4023C37.1741 43.1568 37.7103 42.7098 37.8196 42.4062C37.934 42.0884 37.7063 41.3966 37.7705 41.0669C37.8633 40.5898 38.2455 39.6564 38.5668 39.2743C38.8936 38.8857 39.8284 38.3688 40.2753 38.1027C40.6177 37.8989 41.4649 37.6814 41.6996 37.3731C42.0405 36.9255 42.0297 35.7554 42.0857 35.2097C42.1423 34.6593 42.2219 33.5474 42.1479 32.9988C42.0461 32.2455 41.0857 30.819 41.2576 30.0768C41.6827 28.2416 45.1499 25.7577 46.4638 24.3309C47.1085 23.6307 48.5785 22.3511 49.0668 21.5492C49.3944 21.0113 49.7671 19.8059 49.8886 19.1985C49.984 18.7219 49.9722 17.7465 50 17.2625Z"/>
<path d="M48.8246 36.7561C48.7348 36.3385 48.8455 35.3554 48.4797 35.0833C48.404 35.027 48.173 35.0427 48.0856 35.0833C47.8189 35.2074 47.6026 35.7687 47.3958 35.9637C46.6994 36.6203 44.6528 37.3824 44.2078 38.1948C44.0383 38.5044 44.2726 39.2345 44.2019 39.5733C44.1193 39.9685 43.6054 40.6757 43.5592 41.0757C43.4645 41.8948 43.3853 43.8603 44.144 44.3277C44.4443 44.5127 45.2842 44.2628 45.5728 44.0636C46.3507 43.5268 46.9486 41.7296 47.3164 40.9152C47.6911 40.0855 47.7901 38.1084 48.529 37.5045C48.6128 37.436 48.9104 37.5015 48.9724 37.4164C49.0752 37.2754 48.8602 36.9215 48.8246 36.7561Z"/>
</mask>
<path d="M50 17.2625C49.9509 17.2169 49.8709 17.0959 49.8035 17.0801C49.0577 16.9055 47.5912 17.689 46.8567 17.9009C46.5118 18.0004 45.8415 18.3369 45.4815 18.3113C45.0708 18.2822 44.1313 17.9922 44.008 17.6273C43.962 17.491 44.3275 17.2667 44.3027 17.1257C44.2273 16.6957 43.236 16.2682 42.9275 15.94C42.8237 15.8296 42.6819 15.5579 42.5642 15.4602C42.3074 15.2471 41.6097 15.0617 41.3558 14.8456C40.801 14.3734 39.9659 13.1685 39.6859 12.5199C39.4331 11.934 39.3075 10.5238 38.9001 10.1029C38.3338 9.5181 38.1611 9.25247 37.9389 8.95254C37.674 8.59484 37.088 7.91564 36.8373 7.54923C36.4542 6.98937 34.8962 5.62837 35.4621 5.22352C35.7304 5.03158 36.1432 6.23379 36.4444 6.08996C36.9957 5.8267 36.5728 4.18274 36.1006 3.80985C35.6785 3.47659 34.4382 3.82768 33.885 3.85545C33.4485 3.87734 32.5801 4.00247 32.143 3.99468C31.445 3.98223 30.0638 3.76001 29.3719 3.67304C28.7816 3.59885 27.5272 3.07256 27.0144 3.35383C26.6531 3.55202 26.7959 4.63087 26.425 4.8131C26.0118 5.01617 25.0202 4.60707 24.6078 4.40268C24.2551 4.22789 23.7897 3.55959 23.429 3.39943C23.0593 3.23522 22.2037 3.27124 21.8083 3.17142C21.3616 3.05869 20.2096 2.94797 20.0892 2.53299C19.996 2.2115 20.9597 1.81685 20.9733 1.48414C20.98 1.31984 20.6039 1.0999 20.5804 0.936915C20.5546 0.758246 20.922 0.409526 20.826 0.252883C20.683 0.0196736 19.9765 -0.0407949 19.6963 0.0248722C19.5866 0.0505919 19.461 0.268525 19.3525 0.298485C19.0081 0.393611 18.2866 0.136096 17.9275 0.125197C17.3975 0.109099 16.3312 0.158167 15.8108 0.252883C14.9357 0.412171 13.3191 1.31272 12.4273 1.30173C11.8525 1.29466 10.8302 0.468399 10.2663 0.572098C9.71886 0.672742 9.00061 1.59245 8.61757 1.96921C8.07377 2.50408 7.15317 3.70907 6.61993 4.25301C6.32161 4.55732 5.68626 5.13277 5.35484 5.40593C4.76055 5.89569 3.42292 6.71763 2.87485 7.25186C2.30478 7.8077 1.17146 9.00271 0.934581 9.73813C0.804967 10.1404 1.02844 10.9961 1.01734 11.4159C1.00879 11.7388 0.937086 12.3828 0.885466 12.7023C0.758947 13.485 0.409399 15.0365 0.197863 15.8032C0.15641 15.9534 -0.017308 16.242 0.00140459 16.396C0.0304313 16.6348 0.376443 17.0278 0.518728 17.2286C0.693379 17.475 0.986102 18.0589 1.27838 18.1745C1.36944 18.2106 1.58127 18.0907 1.6713 18.1289C1.91284 18.2316 2.13135 18.7343 2.26067 18.9498C2.49068 19.333 2.72908 20.2209 3.04651 20.5458C3.263 20.7675 3.89727 20.9753 4.16111 21.1472C4.55889 21.4062 5.19541 22.1496 5.65144 22.3053C6.40152 22.5615 8.04985 22.2928 8.84811 22.3288C9.18823 22.3442 9.86449 22.4545 10.2048 22.4416C10.6063 22.4263 11.3917 22.2441 11.7888 22.1875C12.7877 22.0451 14.831 21.4059 15.795 21.6875C16.2076 21.8081 16.6562 22.6543 17.0689 22.7746C17.4058 22.8727 18.1234 22.5283 18.4684 22.5979C18.7381 22.6524 19.2754 22.9173 19.4016 23.1452C19.5961 23.4963 19.325 24.3278 19.3043 24.7222C19.2939 24.9195 19.3117 25.3179 19.2699 25.5115C19.2053 25.8109 18.7678 26.3541 18.8123 26.6565C18.9312 27.4654 20.4297 28.5975 20.8751 29.3015C21.2731 29.9303 22.3026 31.2231 22.2012 31.9464C22.1888 32.0347 21.9777 32.1333 21.9556 32.22C21.8571 32.6075 22.3983 33.375 22.3485 33.7705C22.2752 34.3529 21.3278 35.2906 21.2189 35.8682C21.0377 36.8293 21.3529 38.8267 21.71 39.7443C21.9091 40.2559 22.7807 41.0594 22.987 41.5684C23.2202 42.1436 23.1648 43.4159 23.3658 44.0014C23.5235 44.4609 24.098 45.2793 24.3131 45.7182C24.6417 46.3888 25.8044 47.7772 25.4918 48.4544C25.4658 48.5108 25.2576 48.4851 25.2463 48.5456C25.1457 49.083 26.4298 49.885 27.0059 49.992C27.391 50.0635 28.119 49.6339 28.492 49.5198C29.4328 49.2319 31.3634 48.7803 32.2697 48.4088C32.5163 48.3077 33.0001 48.0722 33.2028 47.9072C33.5057 47.6606 33.9443 47.0213 34.1851 46.7215C34.611 46.1914 35.4126 45.0965 35.855 44.5782C36.1153 44.2733 36.6838 43.7007 36.9528 43.4023C37.1741 43.1568 37.7103 42.7098 37.8196 42.4062C37.934 42.0884 37.7063 41.3966 37.7705 41.0669C37.8633 40.5898 38.2455 39.6564 38.5668 39.2743C38.8936 38.8857 39.8284 38.3688 40.2753 38.1027C40.6177 37.8989 41.4649 37.6814 41.6996 37.3731C42.0405 36.9255 42.0297 35.7554 42.0857 35.2097C42.1423 34.6593 42.2219 33.5474 42.1479 32.9988C42.0461 32.2455 41.0857 30.819 41.2576 30.0768C41.6827 28.2416 45.1499 25.7577 46.4638 24.3309C47.1085 23.6307 48.5785 22.3511 49.0668 21.5492C49.3944 21.0113 49.7671 19.8059 49.8886 19.1985C49.984 18.7219 49.9722 17.7465 50 17.2625Z" stroke="black" stroke-width="7.37826" mask="url(#path-2-inside-1)"/>
<path d="M48.8246 36.7561C48.7348 36.3385 48.8455 35.3554 48.4797 35.0833C48.404 35.027 48.173 35.0427 48.0856 35.0833C47.8189 35.2074 47.6026 35.7687 47.3958 35.9637C46.6994 36.6203 44.6528 37.3824 44.2078 38.1948C44.0383 38.5044 44.2726 39.2345 44.2019 39.5733C44.1193 39.9685 43.6054 40.6757 43.5592 41.0757C43.4645 41.8948 43.3853 43.8603 44.144 44.3277C44.4443 44.5127 45.2842 44.2628 45.5728 44.0636C46.3507 43.5268 46.9486 41.7296 47.3164 40.9152C47.6911 40.0855 47.7901 38.1084 48.529 37.5045C48.6128 37.436 48.9104 37.5015 48.9724 37.4164C49.0752 37.2754 48.8602 36.9215 48.8246 36.7561Z" stroke="black" stroke-width="7.37826" mask="url(#path-2-inside-1)"/>
</svg>
