<svg width="50" height="50" viewBox="0 0 50 50" fill="none" xmlns="http://www.w3.org/2000/svg">
<path opacity="0.5" d="M6.1769 10.7945V35.4998M6.1769 10.7945H10.8827M6.1769 10.7945H1.47113M6.1769 35.4998H1.47113M6.1769 35.4998H10.8827" stroke="#0A0000" stroke-width="2.35289" stroke-linecap="round"/>
<path d="M19.1178 2.55935V42.5584M19.1178 2.55935H23.8236M19.1178 2.55935H14.412M19.1178 42.5584H14.412M19.1178 42.5584H23.8236" stroke="#0A0000" stroke-width="4.70577" stroke-linecap="round"/>
<path d="M32.0586 6.08868V48.4406M32.0586 6.08868H36.7644M32.0586 6.08868H27.3529M32.0586 48.4406H27.3529M32.0586 48.4406H36.7644" stroke="#0A0000" stroke-width="2.35289" stroke-linecap="round"/>
<path opacity="0.5" d="M43.8231 17.8531V39.0291M43.8231 17.8531H48.5289M43.8231 17.8531H39.1173M43.8231 39.0291H39.1173M43.8231 39.0291H48.5289" stroke="#0A0000" stroke-width="2.35289" stroke-linecap="round"/>
</svg>
